<?xml version="1.0" encoding="UTF-8" standalone="no"?>
<!-- Created with Inkscape (http://www.inkscape.org/) -->

<svg
   xmlns:dc="http://purl.org/dc/elements/1.1/"
   xmlns:cc="http://creativecommons.org/ns#"
   xmlns:rdf="http://www.w3.org/1999/02/22-rdf-syntax-ns#"
   xmlns:svg="http://www.w3.org/2000/svg"
   xmlns="http://www.w3.org/2000/svg"
   xmlns:sodipodi="http://sodipodi.sourceforge.net/DTD/sodipodi-0.dtd"
   xmlns:inkscape="http://www.inkscape.org/namespaces/inkscape"
   id="svg8"
   version="1.1"
   viewBox="0 0 34.391831 30.064272"
   height="30.06427mm"
   width="34.39183mm"
   inkscape:version="0.92.4 (5da689c313, 2019-01-14)"
   sodipodi:docname="logo.svg">
  <defs
     id="defs2" />
  <sodipodi:namedview
     id="base"
     pagecolor="#ffffff"
     bordercolor="#666666"
     borderopacity="1.0"
     inkscape:pageopacity="0.0"
     inkscape:pageshadow="2"
     inkscape:zoom="3.6203867"
     inkscape:cx="-1.1059963"
     inkscape:cy="78.237823"
     inkscape:document-units="mm"
     inkscape:current-layer="layer1"
     showgrid="false"
     inkscape:window-width="2560"
     inkscape:window-height="1385"
     inkscape:window-x="0"
     inkscape:window-y="27"
     inkscape:window-maximized="1"
     inkscape:snap-page="true" />
  <metadata
     id="metadata5">
    <rdf:RDF>
      <cc:Work
         rdf:about="">
        <dc:format>image/svg+xml</dc:format>
        <dc:type
           rdf:resource="http://purl.org/dc/dcmitype/StillImage" />
        <dc:title></dc:title>
      </cc:Work>
    </rdf:RDF>
  </metadata>
  <g
     inkscape:label="Layer 1"
     inkscape:groupmode="layer"
     id="layer1"
     transform="translate(-277.53412,42.995542)">
    <path
       style="fill:#000000;fill-opacity:1;stroke-width:0.01576638"
       d="m 279.36049,-12.951582 c -0.17993,-0.05714 -0.3906,-0.204244 -0.64304,-0.449005 -0.43528,-0.422025 -0.76224,-0.908717 -0.91039,-1.355166 -0.10177,-0.306677 -0.14421,-0.585161 -0.18099,-1.187371 -0.0134,-0.219857 -0.0393,-0.548733 -0.0574,-0.730835 -0.0433,-0.433848 -0.0462,-0.82231 -0.007,-0.993282 0.0698,-0.307723 0.21431,-0.483325 0.52425,-0.636929 0.17268,-0.08558 0.30213,-0.129483 0.75074,-0.254613 0.63214,-0.176323 0.87873,-0.293444 1.2889,-0.612166 0.22134,-0.171989 0.23909,-0.191648 0.75617,-0.8376 0.81926,-1.023435 1.11447,-1.407447 1.73482,-2.256707 0.4529,-0.620006 0.70766,-0.881946 1.15314,-1.185636 0.25821,-0.176027 0.51206,-0.320342 1.07994,-0.613951 0.88493,-0.457531 1.15673,-0.639922 1.53545,-1.030362 0.22756,-0.234605 0.40756,-0.475374 0.84717,-1.133182 0.67325,-1.007421 0.87114,-1.237472 1.67494,-1.947148 0.50459,-0.445507 0.67564,-0.609485 0.86344,-0.827735 0.35389,-0.411279 0.53779,-0.766877 0.83167,-1.608171 0.34067,-0.975256 0.48878,-1.265371 0.80996,-1.586545 0.35612,-0.356107 0.7734,-0.561829 1.52888,-0.753741 0.50069,-0.127193 0.66172,-0.191678 0.94847,-0.379832 0.39041,-0.256164 0.7684,-0.581159 2.14423,-1.843571 1.65721,-1.520591 2.06937,-1.855867 2.74218,-2.230611 0.42661,-0.237615 0.4561,-0.26795 1.0181,-1.047321 0.1534,-0.21272 0.19713,-0.291651 0.19694,-0.355436 -2.6e-4,-0.08482 -0.0851,-0.201891 -0.33376,-0.460404 -0.13286,-0.13814 -0.28157,-0.297141 -0.33045,-0.353336 -0.20806,-0.239171 -0.37062,-0.553187 -0.47326,-0.914141 -0.0283,-0.09972 -0.0528,-0.18352 -0.0544,-0.186217 -0.008,-0.01351 -2.40678,0.256263 -2.85203,0.320731 -0.45351,0.06566 -0.93616,0.194077 -1.37168,0.364944 -0.66536,0.261043 -0.93247,0.514924 -1.28709,1.223342 -0.0777,0.155288 -0.19415,0.407643 -0.25869,0.560789 -0.17328,0.41114 -0.2056,0.470443 -0.28969,0.531543 -0.15595,0.11331 -0.37349,0.11522 -0.44593,0.0039 -0.0781,-0.120074 -0.0518,-0.233315 0.19114,-0.821434 0.0752,-0.18209 0.11579,-0.328599 0.10139,-0.366129 -0.008,-0.02164 -0.0249,-0.02547 -0.0853,-0.01967 -0.15928,0.01531 -0.48805,0.211521 -0.88203,0.526415 -0.34507,0.2758 -0.59216,0.459159 -0.676,0.501642 -0.16203,0.08211 -0.28801,0.0825 -0.36445,0.0011 -0.0501,-0.05329 -0.062,-0.186013 -0.0236,-0.261653 0.0151,-0.0296 0.21272,-0.240526 0.43926,-0.468721 l 0.41189,-0.414901 -0.1892,0.08868 c -0.10406,0.04877 -0.3169,0.155062 -0.47299,0.236202 -0.43391,0.225563 -0.55673,0.256428 -0.6599,0.165837 -0.13395,-0.117605 -0.0689,-0.320557 0.15563,-0.485417 0.0561,-0.04122 0.25592,-0.156366 0.44396,-0.255876 0.64071,-0.33907 0.77119,-0.44037 0.69491,-0.539485 -0.0201,-0.0261 -0.53551,-0.131016 -0.98146,-0.199782 -0.27144,-0.04185 -0.36478,-0.07132 -0.4288,-0.135341 -0.0884,-0.08835 -0.0641,-0.220757 0.054,-0.29414 0.0833,-0.05177 0.23419,-0.04668 0.50884,0.01718 0.29258,0.06802 0.55855,0.110342 0.76631,0.121943 0.25086,0.01401 0.2845,6.62e-4 0.24069,-0.09549 -0.0255,-0.05603 -0.31076,-0.193384 -0.6286,-0.302709 -0.30379,-0.10449 -0.43716,-0.164334 -0.50272,-0.225575 -0.0815,-0.07615 -0.0842,-0.175612 -0.007,-0.247427 0.13095,-0.121363 0.43893,-0.08342 0.90039,0.110932 0.1153,0.04856 0.2501,0.09926 0.29956,0.112676 0.13968,0.03788 0.33922,0.03059 0.65465,-0.02392 0.30325,-0.0524 0.44222,-0.05852 0.71223,-0.03135 0.38956,0.03921 0.61526,-0.04366 1.63195,-0.599213 1.33545,-0.729726 1.79667,-0.916723 2.84583,-1.153807 0.19078,-0.04311 0.44061,-0.09956 0.55518,-0.125443 0.41855,-0.09456 0.68877,-0.115983 0.88356,-0.07005 0.12517,0.02951 0.26825,0.101706 0.55571,0.28041 0.12574,0.07817 0.39889,0.244986 0.60701,0.370714 0.92355,0.55794 1.45923,0.947839 1.75468,1.277151 0.2197,0.24489 0.34983,0.440313 0.54721,0.821818 l 0.12613,0.24379 0.14312,0.03456 c 0.30709,0.07416 0.48246,0.178854 0.712,0.425042 l 0.14098,0.151201 0.0768,-0.193333 c 0.0975,-0.245313 0.2622,-0.583051 0.36601,-0.750375 0.44088,-0.710637 1.19448,-1.256255 1.97042,-1.426626 0.20064,-0.04405 0.61292,-0.04814 0.78807,-0.0078 0.49619,0.114238 0.99056,0.425263 1.4875,0.935835 0.43926,0.451312 0.76803,0.941798 0.90722,1.353465 0.0337,0.09977 0.044,0.16402 0.0491,0.307445 0.006,0.165971 0.003,0.187306 -0.0301,0.252135 -0.0501,0.09703 -0.12175,0.142024 -0.226,0.142024 -0.0594,0 -0.0938,0.0091 -0.12387,0.03273 -0.0687,0.05406 -0.13349,0.162336 -0.18496,0.309253 -0.12041,0.343672 -0.2232,0.51107 -0.47153,0.767965 l -0.16918,0.175013 -0.0404,0.141898 c -0.0222,0.07804 -0.0616,0.252753 -0.0875,0.388243 -0.0768,0.401669 -0.13074,0.487095 -0.3071,0.486417 -0.0669,-2.57e-4 -0.12694,-0.01259 -0.19192,-0.03939 -0.10508,-0.04333 -0.0919,-0.04908 -0.16555,0.07237 -0.0217,0.03577 -0.0586,0.07499 -0.082,0.08716 -0.0487,0.02533 -0.13489,0.0288 -0.19045,0.0077 -0.0342,-0.01301 -0.0407,-0.0084 -0.0651,0.04692 -0.0341,0.0773 -0.083,0.115856 -0.20199,0.159237 -0.076,0.02772 -0.1019,0.04668 -0.13462,0.09867 -0.0732,0.116302 -0.13679,0.185268 -0.20881,0.226463 -0.039,0.02232 -0.0736,0.04253 -0.0768,0.0449 -0.003,0.0024 0.0193,0.06674 0.0501,0.143033 0.0752,0.186652 0.10553,0.346681 0.10553,0.556181 v 0.174415 l 0.14584,0.159409 c 0.45926,0.501992 0.62085,0.786325 0.91998,1.61885 l 0.0755,0.210145 0.0561,-0.06808 c 0.0308,-0.03744 0.13974,-0.165909 0.24203,-0.285478 0.50281,-0.587741 0.63104,-0.786319 1.11206,-1.722201 0.16045,-0.312174 0.31006,-0.603064 0.33246,-0.646421 0.0392,-0.07587 0.0405,-0.08751 0.0358,-0.309907 -0.0106,-0.499142 0.0602,-0.734215 0.46432,-1.542643 0.13389,-0.267832 0.23608,-0.451479 0.28469,-0.511606 0.13337,-0.164982 0.3173,-0.226972 0.44409,-0.149674 0.0292,0.01778 0.0552,0.03017 0.0578,0.02753 0.003,-0.0026 0.0238,-0.08993 0.0472,-0.193987 0.0722,-0.32231 0.15341,-0.481615 0.27769,-0.545018 0.0765,-0.03902 0.14255,-0.03241 0.19815,0.01984 0.0498,0.04679 0.0476,0.138142 -0.01,0.417612 -0.0713,0.34617 -0.11621,0.738323 -0.0699,0.61041 0.0714,-0.197113 0.30356,-0.65212 0.3732,-0.731452 0.10264,-0.116927 0.20949,-0.144848 0.27746,-0.0725 0.0735,0.07821 0.0572,0.216428 -0.0542,0.461 -0.0301,0.06598 -0.0547,0.122222 -0.0547,0.124987 0,0.0028 0.0319,-0.0091 0.071,-0.02636 0.14372,-0.06357 0.30964,-0.05345 0.36257,0.02211 0.013,0.01861 0.0237,0.06652 0.0237,0.106478 0,0.06618 -0.0196,0.103718 -0.22009,0.422184 -0.12106,0.192247 -0.21347,0.349541 -0.20537,0.349541 0.008,0 0.0258,0.0214 0.0393,0.04756 0.0422,0.08169 0.0249,0.123336 -0.30753,0.740762 -0.20083,0.372947 -0.29242,0.49591 -0.64922,0.871608 l -0.22135,0.23307 -0.20515,0.437001 c -0.35657,0.75952 -0.51486,1.142724 -0.8741,2.116122 -0.2936,0.795537 -0.42828,1.13162 -0.5748,1.434404 -0.27756,0.573573 -0.55056,0.868548 -0.93132,1.006307 -0.0952,0.03443 -0.14263,0.04174 -0.2731,0.04208 -0.14638,3.8e-4 -0.16543,-0.0033 -0.26108,-0.05034 -0.20906,-0.102829 -0.38308,-0.279226 -0.88539,-0.897455 -0.16243,-0.199916 -0.44935,-0.54371 -0.6376,-0.763987 -0.69994,-0.819011 -0.91227,-1.122868 -1.31295,-1.878861 l -0.0983,-0.185514 -0.0359,0.02785 c -0.0197,0.01532 -0.16631,0.133141 -0.3257,0.261828 -0.51553,0.41622 -0.94792,0.678196 -1.41879,0.859593 -0.092,0.03543 -0.31547,0.117016 -0.49664,0.181292 -0.59162,0.209893 -0.85975,0.327629 -1.45326,0.638118 -0.80847,0.422943 -1.01121,0.517531 -1.65103,0.770271 -0.48777,0.192681 -0.80451,0.346589 -1.04058,0.505642 -0.20492,0.138067 -0.54364,0.411861 -0.54109,0.437375 8.7e-4,0.0087 0.17263,0.167716 0.3817,0.353433 0.64291,0.571104 0.86919,0.781899 1.29604,1.207334 0.58838,0.586439 0.83841,0.881416 1.37458,1.621677 0.16235,0.224158 0.46356,0.634543 0.66936,0.911967 0.20579,0.277425 0.43392,0.594211 0.50695,0.70397 0.26745,0.401964 0.43205,0.742985 0.51763,1.072457 0.0413,0.158868 0.0487,0.219371 0.0552,0.451481 0.006,0.225637 0.003,0.291751 -0.0235,0.418019 -0.0982,0.474599 -0.34738,0.788333 -0.81689,1.028447 -0.22909,0.117156 -0.34218,0.161144 -0.88153,0.342869 -0.25147,0.08473 -0.65091,0.222449 -0.88763,0.306046 -0.96757,0.341686 -1.41384,0.44018 -2.86477,0.632273 -1.05811,0.140087 -1.35615,0.190686 -1.8289,0.310492 -0.44737,0.113376 -0.9257,0.28729 -1.19781,0.435516 -0.0953,0.05194 -0.11029,0.06603 -0.11261,0.106245 -0.001,0.0255 -0.0279,0.163426 -0.0589,0.306506 -0.1401,0.648686 -0.18914,0.989142 -0.18851,1.30861 4e-4,0.197848 0.007,0.268394 0.034,0.37051 0.0488,0.18391 0.14181,0.355805 0.30322,0.560366 0.17154,0.217401 0.26784,0.361446 0.30463,0.455669 0.0343,0.08777 0.0351,0.252768 0.002,0.347084 -0.0912,0.258023 -0.35585,0.465688 -0.64713,0.507739 -0.10549,0.01523 -0.14578,0.01403 -0.2506,-0.0075 -0.37934,-0.07789 -0.70726,-0.366459 -1.03853,-0.913863 -0.0589,-0.09732 -0.26386,-0.489118 -0.45549,-0.870664 -0.56818,-1.131299 -0.65129,-1.265787 -1.16902,-1.891657 -0.286,-0.345736 -0.35899,-0.475782 -0.36999,-0.659229 -0.007,-0.116616 -0.004,-0.128768 0.05,-0.239004 0.10926,-0.221068 0.38216,-0.465302 0.79423,-0.710799 0.29555,-0.176077 0.54829,-0.291126 0.63954,-0.291126 0.0174,0 0.0836,0.03912 0.14709,0.08692 l 0.11549,0.08692 0.70577,-0.266736 c 1.6459,-0.622048 2.39452,-0.931022 2.96036,-1.221824 0.33006,-0.169624 0.47149,-0.255466 0.82773,-0.502391 0.32116,-0.222607 0.46503,-0.306467 0.67913,-0.395854 0.17599,-0.07348 0.51774,-0.18852 0.73644,-0.247903 0.0718,-0.0195 0.12505,-0.04053 0.11825,-0.04673 -0.007,-0.0062 -0.15071,-0.0699 -0.3198,-0.141547 -1.18513,-0.502183 -1.92758,-0.945078 -3.38189,-2.01739 -0.11273,-0.08312 -0.2275,-0.166969 -0.25504,-0.186331 l -0.0501,-0.0352 -0.21823,0.162983 c -0.40607,0.303286 -1.29519,1.03334 -2.48803,2.042925 -0.4199,0.355385 -0.9678,0.775171 -1.2692,0.972404 -0.34156,0.223523 -0.51004,0.304132 -0.96963,0.463918 -0.36392,0.126527 -0.40915,0.155374 -0.8375,0.534214 -0.28634,0.25325 -0.65817,0.492382 -1.15054,0.739941 -0.0984,0.04949 -0.24278,0.160441 -0.65465,0.503169 -1.03805,0.863791 -1.60333,1.301951 -2.59963,2.014998 -0.76023,0.544094 -0.95916,0.691419 -1.27845,0.946808 -0.49153,0.393152 -0.89681,0.780171 -1.34875,1.28797 -0.23414,0.263092 -0.7372,0.862869 -0.72889,0.869033 0.003,0.0023 0.0678,0.04856 0.14369,0.102718 0.0876,0.06252 0.13796,0.109036 0.13796,0.127418 0,0.01668 -0.0685,0.09105 -0.16161,0.175453 -0.17794,0.161306 -0.2116,0.213083 -0.4618,0.710266 -0.23474,0.466469 -0.31998,0.715914 -0.33376,0.97668 -0.0109,0.20692 0.0146,0.334637 0.12342,0.617369 0.0961,0.249738 0.12426,0.356161 0.12426,0.469939 0,0.267657 -0.1904,0.416759 -0.43358,0.339528 z m 30.99756,-24.196399 c 0.0109,-0.01761 0.072,-0.506449 0.0643,-0.514163 -0.007,-0.007 -0.19621,0.313585 -0.22055,0.37364 -0.0123,0.03035 -0.0273,0.07824 -0.0333,0.106423 l -0.0109,0.05124 h 0.0949 c 0.0522,0 0.0997,-0.0077 0.10552,-0.01714 z"
       id="path4564"
       inkscape:connector-curvature="0" />
  </g>
</svg>
