<?xml version="1.0" encoding="UTF-8" standalone="no"?>
<!-- Created with Inkscape (http://www.inkscape.org/) -->

<svg
   xmlns:dc="http://purl.org/dc/elements/1.1/"
   xmlns:cc="http://creativecommons.org/ns#"
   xmlns:rdf="http://www.w3.org/1999/02/22-rdf-syntax-ns#"
   xmlns:svg="http://www.w3.org/2000/svg"
   xmlns="http://www.w3.org/2000/svg"
   xmlns:sodipodi="http://sodipodi.sourceforge.net/DTD/sodipodi-0.dtd"
   xmlns:inkscape="http://www.inkscape.org/namespaces/inkscape"
   id="svg8"
   version="1.1"
   viewBox="0 0 128.39667 30.082258"
   height="30.082256mm"
   width="128.39667mm"
   inkscape:version="0.92.3 (2405546, 2018-03-11)"
   sodipodi:docname="website.svg">
  <defs
     id="defs2" />
  <sodipodi:namedview
     id="base"
     pagecolor="#ffffff"
     bordercolor="#666666"
     borderopacity="1.0"
     inkscape:pageopacity="0.0"
     inkscape:pageshadow="2"
     inkscape:zoom="1.8101934"
     inkscape:cx="369.86736"
     inkscape:cy="20.210874"
     inkscape:document-units="mm"
     inkscape:current-layer="layer1"
     showgrid="false"
     inkscape:window-width="1920"
     inkscape:window-height="1052"
     inkscape:window-x="0"
     inkscape:window-y="0"
     inkscape:window-maximized="1"
     inkscape:snap-page="true" />
  <metadata
     id="metadata5">
    <rdf:RDF>
      <cc:Work
         rdf:about="">
        <dc:format>image/svg+xml</dc:format>
        <dc:type
           rdf:resource="http://purl.org/dc/dcmitype/StillImage" />
        <dc:title></dc:title>
      </cc:Work>
    </rdf:RDF>
  </metadata>
  <g
     inkscape:label="Layer 1"
     inkscape:groupmode="layer"
     id="layer1"
     transform="translate(-146.7588,43.001866)">
    <g
       aria-label="ampusrun"
       style="font-style:normal;font-weight:normal;font-size:4.23333311px;line-height:1.25;font-family:sans-serif;letter-spacing:0px;word-spacing:2.53206253px;fill:#ffffff;fill-opacity:1;stroke:none;stroke-width:0.26458332"
       id="text1368">
      <path
         d="m 170.65333,-18.078987 q -0.24805,-0.483692 -0.35967,-1.203027 -1.30225,1.451074 -3.38584,1.451074 -1.97197,0 -3.27422,-1.141016 -1.28984,-1.141015 -1.28984,-2.877344 0,-2.133203 1.57509,-3.274218 1.5875,-1.141016 4.57647,-1.153418 h 1.64951 v -0.768946 q 0,-0.930175 -0.48369,-1.488281 -0.47129,-0.558105 -1.50068,-0.558105 -0.90538,0 -1.42627,0.434082 -0.5085,0.434082 -0.5085,1.190625 h -3.58428 q 0,-1.16582 0.71934,-2.158008 0.71933,-0.992187 2.03398,-1.550293 1.31465,-0.570508 2.95176,-0.570508 2.48047,0 3.93154,1.252637 1.46348,1.240234 1.46348,3.497461 v 5.816699 q 0.0124,1.909961 0.5333,2.889746 v 0.21084 z m -2.96416,-2.492871 q 0.79375,0 1.46347,-0.347266 0.66973,-0.359668 0.99219,-0.95498 v -2.306836 h -1.33945 q -2.69131,0 -2.86494,1.860351 l -0.0124,0.21084 q 0,0.669727 0.47129,1.103809 0.47129,0.434082 1.28985,0.434082 z"
         style="font-style:normal;font-variant:normal;font-weight:bold;font-stretch:normal;font-size:25.39999962px;font-family:Roboto;-inkscape-font-specification:'Roboto Bold';fill:#ffffff;stroke-width:0.26458332"
         id="path87" />
      <path
         d="m 179.88067,-31.498323 0.11162,1.500684 q 1.42627,-1.748731 3.85713,-1.748731 2.59209,0 3.55947,2.046387 1.41387,-2.046387 4.03076,-2.046387 2.18282,0 3.24942,1.277442 1.0666,1.265039 1.0666,3.819921 v 8.57002 h -3.59668 v -8.557617 q 0,-1.141016 -0.44648,-1.661914 -0.44649,-0.533301 -1.5751,-0.533301 -1.61231,0 -2.23242,1.537891 l 0.0124,9.214941 h -3.58428 v -8.545215 q 0,-1.16582 -0.45889,-1.686719 -0.45888,-0.520898 -1.56269,-0.520898 -1.52549,0 -2.20762,1.265039 v 9.487793 h -3.58428 v -13.419336 z"
         style="font-style:normal;font-variant:normal;font-weight:bold;font-stretch:normal;font-size:25.39999962px;font-family:Roboto;-inkscape-font-specification:'Roboto Bold';fill:#ffffff;stroke-width:0.26458332"
         id="path89" />
      <path
         d="m 210.57647,-24.664632 q 0,3.100586 -1.41387,4.97334 -1.40146,1.860352 -3.79512,1.860352 -2.03398,0 -3.28662,-1.413867 v 6.325195 h -3.58427 v -18.578711 h 3.32382 l 0.12403,1.314649 q 1.30224,-1.562696 3.39824,-1.562696 2.48047,0 3.85713,1.835547 1.37666,1.835547 1.37666,5.060156 z m -3.58428,-0.260449 q 0,-1.872754 -0.66972,-2.889746 -0.65733,-1.016992 -1.92237,-1.016992 -1.68672,0 -2.31924,1.289844 v 5.494238 q 0.65733,1.327051 2.34405,1.327051 2.56728,0 2.56728,-4.204395 z"
         style="font-style:normal;font-variant:normal;font-weight:bold;font-stretch:normal;font-size:25.39999962px;font-family:Roboto;-inkscape-font-specification:'Roboto Bold';fill:#ffffff;stroke-width:0.26458332"
         id="path91" />
      <path
         d="m 220.82081,-19.443245 q -1.32705,1.612305 -3.6711,1.612305 -2.158,0 -3.29902,-1.240235 -1.12861,-1.240234 -1.15342,-3.633886 v -8.793262 h 3.58428 v 8.669238 q 0,2.095996 1.90996,2.095996 1.82315,0 2.50527,-1.265039 v -9.500195 h 3.59668 v 13.419336 h -3.37343 z"
         style="font-style:normal;font-variant:normal;font-weight:bold;font-stretch:normal;font-size:25.39999962px;font-family:Roboto;-inkscape-font-specification:'Roboto Bold';fill:#ffffff;stroke-width:0.26458332"
         id="path93" />
      <path
         d="m 234.28975,-21.787288 q 0,-0.657324 -0.65732,-1.029394 -0.64493,-0.384473 -2.0836,-0.682129 -4.7873,-1.00459 -4.7873,-4.067969 0,-1.785937 1.47588,-2.976562 1.48828,-1.203028 3.88193,-1.203028 2.55488,0 4.08037,1.203028 1.53789,1.203027 1.53789,3.12539 h -3.58428 q 0,-0.768945 -0.49609,-1.265039 -0.49609,-0.508496 -1.55029,-0.508496 -0.90537,0 -1.40147,0.409277 -0.49609,0.409278 -0.49609,1.041797 0,0.595313 0.5581,0.967383 0.57051,0.359668 1.90997,0.63252 1.33945,0.260449 2.25722,0.595312 2.84014,1.041797 2.84014,3.609082 0,1.835547 -1.5751,2.976562 -1.5751,1.128614 -4.06797,1.128614 -1.68672,0 -3.00136,-0.595313 -1.30225,-0.607715 -2.04639,-1.649511 -0.74414,-1.0542 -0.74414,-2.269629 h 3.39824 q 0.0496,0.95498 0.70693,1.463476 0.65733,0.508496 1.76114,0.508496 1.02939,0 1.55029,-0.384472 0.5333,-0.396875 0.5333,-1.029395 z"
         style="font-style:normal;font-variant:normal;font-weight:bold;font-stretch:normal;font-size:25.39999962px;font-family:Roboto;-inkscape-font-specification:'Roboto Bold';fill:#ffffff;stroke-width:0.26458332"
         id="path95" />
      <path
         d="m 247.60987,-28.137288 q -0.73174,-0.09922 -1.28985,-0.09922 -2.03398,0 -2.6665,1.376661 v 8.780859 h -3.58428 v -13.419336 h 3.38584 l 0.0992,1.599902 q 1.079,-1.847949 2.98896,-1.847949 0.59532,0 1.11622,0.161231 z"
         style="font-style:normal;font-variant:normal;font-weight:bold;font-stretch:normal;font-size:25.39999962px;font-family:Roboto;-inkscape-font-specification:'Roboto Bold';fill:#ffffff;stroke-width:0.26458332"
         id="path97" />
      <path
         d="m 257.38291,-19.443245 q -1.32705,1.612305 -3.67109,1.612305 -2.15801,0 -3.29902,-1.240235 -1.12862,-1.240234 -1.15342,-3.633886 v -8.793262 h 3.58428 v 8.669238 q 0,2.095996 1.90996,2.095996 1.82314,0 2.50527,-1.265039 v -9.500195 h 3.59668 v 13.419336 h -3.37344 z"
         style="font-style:normal;font-variant:normal;font-weight:bold;font-stretch:normal;font-size:25.39999962px;font-family:Roboto;-inkscape-font-specification:'Roboto Bold';fill:#ffffff;stroke-width:0.26458332"
         id="path99" />
      <path
         d="m 266.88311,-31.498323 0.11162,1.550293 q 1.43867,-1.79834 3.85713,-1.79834 2.1332,0 3.175,1.252637 1.0418,1.252637 1.0666,3.745508 v 8.669238 h -3.58427 v -8.582422 q 0,-1.141015 -0.4961,-1.649512 -0.49609,-0.520898 -1.64951,-0.520898 -1.51309,0 -2.26963,1.289844 v 9.462988 h -3.58428 v -13.419336 z"
         style="font-style:normal;font-variant:normal;font-weight:bold;font-stretch:normal;font-size:25.39999962px;font-family:Roboto;-inkscape-font-specification:'Roboto Bold';fill:#ffffff;stroke-width:0.26458332"
         id="path101" />
    </g>
    <g
       aria-label="C"
       style="font-style:normal;font-weight:normal;font-size:4.23333311px;line-height:1.25;font-family:sans-serif;letter-spacing:0px;word-spacing:2.53206253px;fill:#ffffff;fill-opacity:1;stroke:none;stroke-width:0.26458332"
       id="text1372"
       transform="translate(109.94967,-109.32994)">
      <path
         d="m 85.803978,92.994181 v 3.406247 c -4.882652,0 -29.400176,0.02228 -35.493079,0 -4.124902,0 -7.406422,-1.253015 -9.844562,-3.759044 -2.43814,-2.50603 -3.657209,-5.869737 -3.657209,-10.091125 v -2.372016 c 0,-4.207986 1.242071,-7.564994 3.726212,-10.071024 2.484143,-2.51943 5.834668,-3.779145 10.051575,-3.779145 4.002229,0 7.061405,0.951487 9.177526,2.854461 2.116121,1.889573 3.342857,3.979746 3.68021,6.901213 h -3.845032 c -0.309292,-1.98108 -1.121183,-3.534589 -2.435672,-4.660526 -1.29516,-1.125938 -3.450536,-1.688906 -6.466131,-1.688906 -3.324885,0 -5.81855,0.897899 -7.480993,2.693697 -1.643113,1.781547 -2.474335,4.289963 -2.493664,7.525251 v 2.672319 c 0,3.107067 0.912947,5.283724 2.401413,7.193541 1.788987,1.81264 3.803752,3.175057 7.225291,3.175057 z"
         style="font-style:normal;font-variant:normal;font-weight:500;font-stretch:normal;font-size:35.27777863px;font-family:Roboto;-inkscape-font-specification:'Roboto Medium';stroke-width:0.26458332;fill:#ffffff"
         id="path5092"
         inkscape:connector-curvature="0"
         sodipodi:nodetypes="cccssscsccccsccsccc" />
    </g>
    <path
       style="opacity:1;fill:#ffffff;fill-opacity:1;stroke-width:0.64629632"
       d="m 204.78166,-16.33576 h 70.37381 v 3.406247 h -70.37381 z"
       id="rect824"
       inkscape:connector-curvature="0"
       sodipodi:nodetypes="ccccc" />
  </g>
</svg>
